<svg width="1080" height="1080" viewBox="0 0 1080 1080" fill="none" xmlns="http://www.w3.org/2000/svg">
<g clip-path="url(#clip0_1_2)">
<rect width="1080" height="1080" fill="#050A30"/>
<path d="M318.984 247C315.827 247 312.883 246.189 310.152 244.568C307.507 242.947 305.373 240.813 303.752 238.168C302.131 235.523 301.32 232.579 301.32 229.336V211.032L295.944 207.832V192.472L301.32 189.528V172.504C301.32 169.176 302.131 166.189 303.752 163.544C305.373 160.899 307.507 158.808 310.152 157.272C312.883 155.651 315.827 154.84 318.984 154.84H325.896V171.608H319.624C319.197 171.608 318.813 171.779 318.472 172.12C318.216 172.376 318.088 172.717 318.088 173.144V194.136L310.792 200.152L318.088 206.168V228.696C318.088 229.123 318.216 229.507 318.472 229.848C318.813 230.104 319.197 230.232 319.624 230.232H325.896V247H318.984ZM333.192 408V332.864H295.56V315.84H387.72V332.864H350.216V408H333.192ZM397.549 408V315.84H482.413V332.864H414.573V353.344H469.101V370.496H414.573V390.976H482.413V408H397.549ZM513.085 408C509.842 408 506.856 407.189 504.125 405.568C501.48 403.947 499.346 401.813 497.725 399.168C496.104 396.437 495.293 393.451 495.293 390.208V333.632C495.293 330.389 496.104 327.445 497.725 324.8C499.346 322.069 501.48 319.893 504.125 318.272C506.856 316.651 509.842 315.84 513.085 315.84H587.197V332.864H516.669C515.304 332.864 514.194 333.248 513.341 334.016C512.573 334.784 512.189 335.893 512.189 337.344V386.496C512.189 387.861 512.573 388.971 513.341 389.824C514.194 390.592 515.304 390.976 516.669 390.976H587.197V408H513.085ZM600.671 408V315.84H617.567V353.344H677.983V315.84H694.879V408H677.983V370.496H617.567V408H600.671ZM297.352 671.376V656.4C297.352 653.499 298.077 650.853 299.528 648.464C300.979 645.989 302.984 643.899 305.544 642.192C308.104 640.485 310.963 639.333 314.12 638.736V671.376H297.352ZM328.171 730V694.672C328.171 691.344 328.982 688.357 330.603 685.712C332.224 683.067 334.358 680.976 337.003 679.44C339.648 677.819 342.592 677.008 345.835 677.008H401.131C401.558 677.008 401.899 676.88 402.155 676.624C402.496 676.283 402.667 675.899 402.667 675.472V656.144C402.667 655.717 402.496 655.376 402.155 655.12C401.899 654.779 401.558 654.608 401.131 654.608H346.475C346.048 654.608 345.664 654.779 345.323 655.12C345.067 655.376 344.939 655.717 344.939 656.144V662.416H328.171V655.504C328.171 652.176 328.982 649.189 330.603 646.544C332.224 643.899 334.358 641.808 337.003 640.272C339.648 638.651 342.592 637.84 345.835 637.84H401.771C405.014 637.84 407.958 638.651 410.603 640.272C413.334 641.808 415.467 643.899 417.003 646.544C418.624 649.189 419.435 652.176 419.435 655.504V676.24C419.435 679.397 418.624 682.341 417.003 685.072C415.467 687.717 413.334 689.851 410.603 691.472C407.958 693.093 405.014 693.904 401.771 693.904H346.475C346.048 693.904 345.664 694.075 345.323 694.416C345.067 694.672 344.939 695.013 344.939 695.44V711.696C344.939 712.123 345.067 712.507 345.323 712.848C345.664 713.104 346.048 713.232 346.475 713.232H419.435V730H328.171ZM452.085 730C448.842 730 445.898 729.189 443.253 727.568C440.608 725.947 438.474 723.813 436.853 721.168C435.232 718.523 434.421 715.579 434.421 712.336V655.504C434.421 652.176 435.232 649.189 436.853 646.544C438.474 643.899 440.608 641.808 443.253 640.272C445.898 638.651 448.842 637.84 452.085 637.84H511.093V654.608H452.725C452.298 654.608 451.914 654.779 451.573 655.12C451.317 655.376 451.189 655.717 451.189 656.144V672.912C451.189 673.339 451.317 673.723 451.573 674.064C451.914 674.32 452.298 674.448 452.725 674.448H508.021C511.264 674.448 514.208 675.259 516.853 676.88C519.584 678.416 521.717 680.549 523.253 683.28C524.874 685.925 525.685 688.869 525.685 692.112V712.336C525.685 715.579 524.874 718.523 523.253 721.168C521.632 723.813 519.498 725.947 516.853 727.568C514.208 729.189 511.264 730 508.021 730H452.085ZM452.725 713.232H507.381C507.808 713.232 508.149 713.104 508.405 712.848C508.746 712.507 508.917 712.123 508.917 711.696V692.88C508.917 692.453 508.746 692.112 508.405 691.856C508.149 691.515 507.808 691.344 507.381 691.344H451.189V711.696C451.189 712.123 451.317 712.507 451.573 712.848C451.914 713.104 452.298 713.232 452.725 713.232ZM299.528 891V874.232H305.8C306.227 874.232 306.568 874.104 306.824 873.848C307.165 873.507 307.336 873.123 307.336 872.696V850.296L314.632 844.28L307.336 838.264V817.144C307.336 816.717 307.165 816.376 306.824 816.12C306.568 815.779 306.227 815.608 305.8 815.608H299.528V798.84H306.44C309.683 798.84 312.627 799.651 315.272 801.272C317.917 802.808 320.051 804.899 321.672 807.544C323.293 810.189 324.104 813.176 324.104 816.504V833.4L329.48 836.6V851.704L324.104 855.032V873.336C324.104 876.579 323.293 879.523 321.672 882.168C320.051 884.813 317.875 886.947 315.144 888.568C312.499 890.189 309.597 891 306.44 891H299.528Z" fill="#00F0FF"/>
<path d="M300.424 569V476.84H385.288V493.864H317.448V514.344H371.976V531.496H317.448V569H300.424ZM392.924 569V476.84H477.788V493.864H409.948V514.344H464.476V531.496H409.948V551.976H477.788V569H392.924ZM508.076 569C504.833 569 501.847 568.189 499.116 566.568C496.471 564.947 494.337 562.813 492.716 560.168C491.095 557.437 490.284 554.451 490.284 551.208V544.168H507.18V550.44C507.18 550.867 507.308 551.251 507.564 551.592C507.905 551.848 508.289 551.976 508.716 551.976H563.884C564.311 551.976 564.652 551.848 564.908 551.592C565.249 551.251 565.42 550.867 565.42 550.44V532.904C565.42 532.477 565.249 532.136 564.908 531.88C564.652 531.624 564.311 531.496 563.884 531.496H508.076C504.833 531.496 501.847 530.685 499.116 529.064C496.471 527.443 494.337 525.309 492.716 522.664C491.095 519.933 490.284 516.904 490.284 513.576V494.632C490.284 491.389 491.095 488.445 492.716 485.8C494.337 483.069 496.471 480.893 499.116 479.272C501.847 477.651 504.833 476.84 508.076 476.84H564.652C567.895 476.84 570.839 477.651 573.484 479.272C576.215 480.893 578.391 483.069 580.012 485.8C581.633 488.445 582.444 491.389 582.444 494.632V501.672H565.42V495.4C565.42 494.973 565.249 494.632 564.908 494.376C564.652 494.035 564.311 493.864 563.884 493.864H508.716C508.289 493.864 507.905 494.035 507.564 494.376C507.308 494.632 507.18 494.973 507.18 495.4V512.936C507.18 513.363 507.308 513.704 507.564 513.96C507.905 514.216 508.289 514.344 508.716 514.344H564.652C567.895 514.344 570.839 515.155 573.484 516.776C576.215 518.397 578.391 520.573 580.012 523.304C581.633 525.949 582.444 528.936 582.444 532.264V551.208C582.444 554.451 581.633 557.437 580.012 560.168C578.391 562.813 576.215 564.947 573.484 566.568C570.839 568.189 567.895 569 564.652 569H508.076ZM629.442 569V493.864H591.81V476.84H683.97V493.864H646.466V569H629.442Z" fill="#FF0A0A"/>
</g>
<defs>
<clipPath id="clip0_1_2">
<rect width="1080" height="1080" fill="white"/>
</clipPath>
</defs>
</svg>
